<?xml version="1.0" standalone="no"?>
<!DOCTYPE svg PUBLIC "-//W3C//DTD SVG 20010904//EN"
 "http://www.w3.org/TR/2001/REC-SVG-20010904/DTD/svg10.dtd">
<svg version="1.0" xmlns="http://www.w3.org/2000/svg"
 width="1024.000000pt" height="1024.000000pt" viewBox="0 0 1024.000000 1024.000000"
 preserveAspectRatio="xMidYMid meet">
<metadata>
Created by potrace 1.14, written by Peter Selinger 2001-2017
</metadata>
<g transform="translate(0.000000,1024.000000) scale(0.100000,-0.100000)"
fill="#000000" stroke="none">
<path d="M0 9529 c0 -618 2 -712 15 -725 12 -12 15 -42 15 -137 1 -349 20
-665 43 -679 19 -12 27 -9 21 7 -4 8 -1 15 5 15 19 0 41 46 53 111 6 35 17 73
25 85 17 27 110 463 128 604 14 112 35 158 50 111 3 -10 10 -54 15 -97 5 -44
14 -115 20 -159 42 -311 77 -577 84 -650 5 -47 -8 -157 -36 -310 -11 -60 -24
-136 -28 -167 -4 -31 -12 -78 -18 -105 -6 -26 -15 -88 -22 -138 -6 -49 -15
-119 -20 -155 -5 -36 -9 -78 -9 -95 1 -47 -20 -302 -31 -385 -25 -177 -59
-493 -71 -650 -23 -312 -28 -461 -28 -750 0 -375 16 -647 54 -900 29 -187 33
-214 50 -295 9 -44 21 -104 26 -134 6 -30 12 -57 14 -61 2 -4 16 -58 29 -121
55 -245 115 -453 116 -398 0 9 -9 52 -20 95 -22 88 -40 174 -65 309 -9 50 -20
110 -25 135 -30 148 -60 436 -81 775 -13 208 -6 793 11 980 5 61 14 162 20
225 6 63 15 158 21 210 6 52 15 131 20 175 9 92 22 185 44 340 9 61 20 139 25
175 4 36 13 88 18 115 6 28 16 88 22 135 6 47 18 108 25 135 14 53 23 102 55
315 12 74 26 158 31 185 6 28 15 77 21 110 19 113 26 150 43 230 17 78 22 105
45 229 6 32 15 67 20 77 6 10 10 31 10 48 0 16 4 40 9 53 5 13 22 82 36 153
34 163 58 268 97 420 17 66 32 134 35 150 2 17 8 39 12 50 10 23 28 93 41 150
5 22 13 58 19 80 72 300 141 695 141 808 l0 27 -565 0 -565 0 0 -711z m965
448 c0 -65 -19 -64 -23 2 -2 40 0 52 10 49 8 -3 13 -22 13 -51z"/>
<path d="M1200 10227 c0 -8 22 -65 49 -128 98 -230 167 -450 186 -593 4 -27
11 -59 17 -71 9 -21 1 -34 -79 -126 -146 -170 -277 -357 -343 -491 -17 -35
-40 -76 -50 -93 -10 -16 -21 -41 -24 -55 -4 -14 9 4 29 40 38 70 199 290 221
303 8 4 14 12 14 16 0 27 234 270 307 319 21 14 40 29 43 32 3 4 59 49 124
100 247 193 555 368 856 487 36 14 69 29 75 34 5 5 18 9 29 9 11 0 45 9 75 20
31 10 132 42 224 70 93 27 180 56 195 64 39 20 220 59 239 52 12 -5 -10 -33
-94 -119 -174 -178 -284 -340 -425 -622 -72 -143 -205 -504 -267 -720 -20 -72
-58 -219 -69 -270 -18 -83 -52 -247 -62 -300 -5 -27 -16 -88 -25 -135 -30
-155 -35 -185 -38 -225 -2 -22 -10 -74 -16 -115 -18 -111 -29 -193 -40 -305
-6 -55 -15 -147 -21 -205 -6 -58 -15 -161 -20 -230 -5 -69 -14 -159 -19 -200
-5 -41 -15 -226 -21 -411 -17 -475 -4 -1153 35 -1774 26 -402 35 -566 44 -803
5 -123 11 -225 13 -228 5 -5 33 378 31 436 l-1 45 44 -50 c24 -28 44 -55 44
-61 0 -15 134 -214 234 -347 109 -147 276 -320 414 -431 133 -106 141 -122
151 -280 l6 -109 55 43 c30 24 69 58 85 76 33 36 70 51 88 36 15 -12 147 -61
202 -74 22 -5 90 -16 150 -24 89 -12 125 -12 190 -3 181 26 292 119 254 212
-28 68 -97 94 -269 101 -123 5 -217 19 -233 35 -7 7 -6 15 3 25 14 18 263 200
342 251 9 6 42 28 74 49 174 115 601 377 720 440 27 15 65 36 84 47 71 43 468
238 555 274 86 35 118 48 176 75 15 7 36 9 47 6 19 -6 20 -15 21 -159 1 -190
-15 -573 -29 -692 -25 -204 -42 -324 -57 -400 -9 -44 -18 -98 -20 -120 -6 -58
12 -25 27 50 7 33 16 80 21 105 5 25 13 70 18 100 5 30 16 96 25 145 26 145
56 417 67 605 11 184 5 562 -11 715 -10 96 -6 135 15 135 22 0 195 -183 195
-207 0 -6 21 -39 48 -74 26 -35 57 -80 70 -100 24 -40 112 -214 112 -223 0 -3
17 -34 38 -68 21 -35 53 -99 71 -143 18 -44 37 -89 42 -100 19 -44 49 -147 82
-280 68 -269 87 -403 87 -598 0 -156 -6 -181 -34 -158 -8 7 -36 14 -64 18 -40
4 -59 1 -96 -18 -42 -21 -48 -28 -63 -78 -14 -50 -14 -59 1 -106 19 -62 62
-105 147 -149 l64 -33 -2 -44 c-4 -78 -62 -304 -128 -504 -21 -64 -62 -152
-74 -159 -6 -4 -11 -16 -11 -27 0 -10 -4 -19 -9 -19 -5 0 -12 -12 -15 -26 -10
-37 -112 -247 -135 -276 -15 -19 -36 -27 -88 -36 -86 -15 -224 -31 -378 -42
-66 -5 -184 -15 -263 -21 -109 -10 -159 -10 -215 -1 -39 6 -124 14 -187 17
-63 3 -149 10 -190 15 -302 39 -400 53 -510 71 -171 28 -213 35 -300 49 -41 6
-98 18 -126 26 -28 8 -62 14 -76 14 -14 0 -38 4 -54 9 -16 5 -65 17 -109 26
-44 9 -93 21 -110 26 -16 6 -57 15 -90 20 -33 5 -82 13 -110 17 -27 5 -70 15
-95 24 -25 9 -85 29 -135 44 -49 14 -109 33 -133 40 -23 8 -52 14 -63 14 -11
0 -48 11 -82 23 -34 13 -105 37 -157 52 -52 16 -99 32 -105 36 -5 3 -41 16
-80 29 -38 12 -151 54 -250 92 -99 39 -198 77 -220 86 -52 19 -84 33 -170 72
-38 18 -95 41 -125 53 -30 11 -64 26 -75 33 -11 8 -25 14 -32 14 -6 0 -135 60
-285 134 -150 73 -327 159 -393 191 -66 32 -145 75 -177 96 -75 51 -123 59
-178 28 -52 -29 -79 -79 -96 -176 -13 -74 -8 -113 21 -170 8 -15 15 -36 15
-46 0 -10 9 -35 20 -57 23 -45 273 -306 370 -386 36 -30 107 -89 159 -132 51
-42 119 -95 150 -117 31 -22 115 -85 186 -141 72 -55 140 -106 152 -114 12 -8
59 -40 105 -71 191 -130 452 -286 558 -336 14 -6 81 -37 150 -69 138 -63 332
-162 426 -216 33 -19 74 -38 90 -42 16 -4 63 -22 104 -40 41 -19 100 -41 130
-50 88 -26 171 -53 230 -75 30 -12 68 -22 85 -23 19 -1 11 -3 -20 -7 -27 -3
-70 -2 -95 2 -25 4 -81 13 -125 18 -168 21 -229 32 -336 60 -20 5 -48 9 -62 9
-14 0 -36 4 -49 9 -13 5 -57 17 -98 26 -215 46 -474 115 -512 136 -10 5 -24 9
-33 9 -8 0 -29 7 -47 14 -18 8 -100 40 -183 71 -249 94 -294 115 -560 255 -49
26 -106 57 -125 69 -19 11 -42 24 -50 28 -19 8 -270 174 -335 222 -246 178
-544 449 -768 699 l-102 113 -3 -265 -2 -266 97 -102 c140 -146 154 -160 293
-288 307 -281 591 -498 870 -666 215 -129 386 -212 625 -304 11 -4 38 -15 60
-23 79 -31 181 -65 255 -86 41 -12 89 -25 105 -30 125 -38 305 -76 474 -100
41 -6 79 -15 85 -21 7 -7 364 -10 1036 -10 l1026 0 17 33 c18 34 44 78 66 112
13 20 21 21 165 17 235 -7 635 39 816 93 112 34 207 55 375 85 152 27 394 98
510 150 28 12 73 32 100 43 87 37 288 141 345 178 30 20 88 57 129 83 211 135
451 343 571 495 45 59 78 90 111 106 63 32 147 111 189 178 19 31 38 56 42 57
4 0 31 -15 60 -33 47 -28 61 -32 123 -32 56 1 81 6 126 28 100 51 256 180 336
279 12 14 42 51 67 82 78 96 166 255 166 300 0 6 39 44 88 83 194 157 319 292
438 473 64 96 136 257 197 440 14 41 30 86 35 100 21 51 67 214 82 285 4 22
13 65 19 95 11 50 48 273 72 430 12 79 26 195 37 313 5 48 14 93 21 100 13 13
16 1347 3 1347 -15 0 -148 -429 -183 -590 -6 -25 -14 -63 -19 -85 -5 -22 -14
-63 -19 -92 -5 -28 -14 -61 -20 -72 -6 -11 -11 -33 -11 -50 0 -16 -4 -40 -9
-53 -13 -36 -44 -185 -81 -403 -12 -66 -28 -158 -36 -205 -8 -47 -19 -111 -24
-142 -6 -32 -14 -84 -20 -115 -5 -32 -12 -76 -15 -98 -9 -67 -23 -138 -35
-185 -19 -77 -28 -113 -41 -165 -108 -457 -284 -821 -521 -1080 -57 -62 -149
-135 -171 -135 -7 0 -31 25 -53 55 -21 31 -49 67 -61 81 -13 14 -23 33 -23 42
0 10 -9 23 -19 29 -19 12 -19 14 10 43 49 49 79 38 38 -14 -12 -15 -19 -30
-16 -33 8 -7 56 30 57 44 0 6 8 14 18 18 24 9 65 63 56 76 -4 7 -17 0 -35 -20
-27 -30 -59 -41 -59 -21 0 6 11 20 25 32 14 12 25 27 25 33 0 16 45 57 53 48
4 -3 7 1 7 9 0 9 11 19 25 22 15 4 27 16 31 30 5 21 46 66 60 66 16 0 35 32
29 50 -8 25 -25 26 -25 1 0 -11 -14 -28 -34 -39 -19 -12 -49 -40 -66 -64 -17
-24 -40 -46 -51 -50 -11 -4 -22 -16 -26 -25 -3 -10 -36 -47 -73 -83 -36 -36
-69 -73 -72 -81 -15 -39 -148 -22 -148 19 0 20 168 353 217 431 103 162 247
440 327 634 19 45 45 107 58 137 14 30 34 80 46 110 11 30 28 75 37 100 30 78
115 344 115 357 0 7 4 21 9 31 6 9 17 44 26 77 10 33 21 71 26 85 7 21 40 142
54 200 10 37 68 292 81 355 33 152 38 173 62 255 14 47 28 108 31 135 4 32 11
49 19 47 8 -1 12 17 12 62 0 66 19 106 21 44 l1 -33 8 34 c4 18 13 43 18 55
22 45 32 89 23 100 -15 18 -25 152 -12 160 7 5 11 -7 11 -37 0 -25 6 -59 13
-76 l13 -31 12 33 c16 45 15 68 -3 37 l-14 -25 -1 27 c0 15 5 30 10 33 18 11
12 53 -7 51 -19 -1 -28 26 -19 51 6 14 9 13 27 -5 10 -12 22 -35 25 -52 4 -16
10 -30 15 -30 14 0 10 56 -5 69 -7 6 -11 22 -8 36 2 14 0 25 -6 25 -16 0 -21
37 -10 82 10 39 15 68 17 92 1 4 8 6 16 2 17 -6 16 -10 20 99 3 91 13 153 26
161 5 3 8 -14 7 -38 -1 -24 0 -50 3 -58 2 -8 -2 -14 -8 -12 -8 1 -13 -8 -13
-21 0 -31 39 -35 42 -4 2 20 4 43 7 72 1 6 6 3 11 -5 8 -12 10 -11 10 7 0 12
-9 28 -19 35 -12 8 -20 29 -22 53 -4 45 14 66 19 23 2 -16 9 -28 18 -28 16 0
18 22 4 50 -5 11 -15 29 -20 40 -7 14 -6 30 4 55 8 19 25 69 36 112 23 79 25
84 53 141 9 19 17 46 17 61 0 25 2 26 40 23 39 -4 55 10 25 22 -10 4 -13 14
-9 36 4 18 1 36 -6 45 -13 16 -7 73 16 143 17 52 21 472 4 472 -5 0 -10 -1
-10 -3 0 -2 -22 -62 -49 -133 -47 -127 -115 -326 -147 -434 -9 -30 -19 -62
-22 -70 -13 -36 -42 -135 -71 -240 -23 -85 -95 -372 -117 -470 -8 -36 -18 -81
-23 -100 -5 -19 -15 -62 -21 -95 -7 -33 -17 -73 -22 -90 -5 -16 -14 -55 -19
-85 -5 -30 -13 -77 -19 -105 -10 -44 -72 -382 -99 -535 -18 -101 -21 -115 -37
-195 -9 -44 -20 -102 -24 -130 -11 -64 -24 -121 -38 -165 -12 -40 -19 -63 -68
-250 -19 -74 -43 -162 -53 -195 -50 -164 -74 -242 -82 -260 -4 -11 -37 -108
-72 -215 -36 -107 -80 -231 -98 -275 -41 -98 -235 -490 -297 -600 -25 -44 -57
-102 -72 -130 -61 -114 -170 -304 -211 -367 -24 -37 -66 -103 -92 -147 -104
-173 -309 -455 -484 -663 -154 -184 -159 -188 -237 -188 -33 0 -78 -6 -101
-14 -50 -17 -126 -36 -185 -47 -25 -4 -74 -15 -110 -24 -36 -9 -86 -20 -111
-25 -25 -5 -64 -13 -85 -19 -187 -50 -496 -110 -589 -116 -27 -1 -97 -10 -154
-19 -103 -17 -130 -15 -100 7 9 7 28 36 43 65 34 67 93 160 119 190 11 12 30
22 42 22 48 0 383 143 400 170 3 6 16 10 28 10 12 0 48 11 80 24 44 18 57 21
57 10 0 -8 -7 -14 -15 -14 -8 0 -25 -10 -37 -22 -13 -13 -32 -21 -43 -20 -18
3 -159 -92 -175 -118 -3 -5 -19 -14 -35 -20 -29 -11 -29 -12 -10 -23 11 -7 20
-21 20 -32 0 -11 8 -21 18 -23 12 -2 17 3 17 17 0 12 4 29 9 39 5 9 12 25 15
35 6 18 56 25 56 7 0 -13 37 -13 45 0 3 6 -5 14 -19 20 -14 5 -26 16 -26 25 0
19 29 20 36 0 8 -19 34 -19 34 0 0 9 -9 15 -21 15 -18 0 -19 3 -9 14 6 8 18
12 26 9 8 -3 22 1 32 9 9 8 27 15 39 16 21 1 123 68 123 81 0 4 -5 12 -10 17
-6 6 -8 18 -4 28 5 13 13 16 35 11 24 -5 28 -4 23 9 -4 10 -1 16 9 16 9 0 44
27 79 61 35 33 99 90 143 126 130 106 231 199 381 348 311 310 484 551 719
1000 104 198 115 221 115 239 0 8 4 17 8 20 5 3 25 58 46 123 21 65 42 127 46
138 5 11 11 31 14 45 4 24 8 36 41 150 26 85 29 99 99 375 37 143 71 276 77
295 6 19 14 49 19 65 42 154 196 614 235 700 7 17 28 62 45 100 61 134 96 220
155 380 36 96 55 144 95 230 59 127 103 290 120 442 23 198 -27 418 -136 599
-20 33 -42 75 -50 94 -8 19 -18 37 -22 40 -5 3 -29 32 -54 65 -60 78 -212 226
-308 300 -85 65 -150 125 -150 137 0 4 7 8 15 8 18 0 20 21 3 38 -8 8 -9 18
-1 34 16 35 34 147 32 198 -2 25 3 77 10 115 7 39 13 86 13 105 0 19 6 78 14
130 9 52 19 124 23 160 5 36 13 83 19 105 16 56 59 249 71 315 43 237 48 459
12 600 -22 90 -71 196 -108 237 -33 35 -29 43 25 43 90 0 200 -45 374 -152
112 -68 157 -109 251 -228 37 -47 73 -92 80 -100 24 -28 84 -146 119 -234 77
-196 127 -477 129 -741 1 -95 -1 -177 -4 -182 -4 -6 -12 -48 -18 -94 -12 -96
-24 -171 -34 -211 -12 -47 10 -31 34 25 13 28 27 59 31 67 4 9 11 31 15 50 3
19 11 49 15 65 5 17 17 61 27 99 13 49 24 71 38 76 11 5 44 34 73 65 l52 56 0
504 c0 284 -4 506 -9 509 -5 3 -21 29 -36 58 -57 109 -164 252 -276 371 l-26
27 -850 0 -850 0 -85 -147 c-47 -82 -95 -166 -106 -189 -25 -50 -47 -68 -69
-59 -10 3 -98 6 -195 5 l-177 -1 -8 28 c-3 15 1 98 10 183 10 85 17 161 17
168 0 9 -26 12 -99 12 l-98 0 -7 -132 c-4 -73 -12 -139 -18 -145 -8 -10 -55
-13 -173 -13 -167 0 -189 5 -184 42 1 7 1 66 0 131 l-1 117 -105 0 -105 0 0
-57 c1 -32 5 -118 10 -192 6 -83 6 -140 0 -151 -11 -20 -47 -25 -241 -36
l-117 -6 -14 29 c-106 205 -188 381 -188 402 0 7 -45 11 -136 11 -75 0 -134
-3 -132 -7 2 -5 25 -51 51 -103 26 -52 56 -108 67 -125 32 -51 53 -95 46 -102
-3 -3 -16 7 -27 23 -34 45 -135 138 -166 154 -15 8 -48 28 -73 45 -60 41 -94
55 -136 55 -71 0 -129 -38 -312 -209 -59 -55 -138 -124 -177 -155 -113 -89
-294 -226 -299 -226 -3 0 -33 -20 -68 -44 -110 -77 -239 -152 -398 -231 -85
-42 -166 -82 -180 -90 -72 -36 -359 -131 -470 -155 -30 -6 -73 -16 -95 -22
-210 -55 -851 -56 -872 -1 -11 29 143 420 238 603 60 115 96 173 216 350 27
40 71 90 139 161 35 36 64 69 64 73 0 11 -66 6 -79 -6 -11 -10 -14 -10 -18 0
-7 19 -411 17 -437 -3 -11 -8 -38 -15 -60 -15 -23 0 -72 -9 -111 -20 -38 -11
-87 -20 -109 -20 -110 -1 -544 -192 -746 -330 -49 -33 -93 -60 -97 -59 -11 0
-97 108 -116 145 -36 70 -47 120 -47 217 l0 97 -250 0 c-202 0 -250 -3 -250
-13z m4658 -241 c84 -55 136 -109 206 -214 63 -96 117 -231 141 -352 22 -110
14 -173 -25 -218 -36 -42 -44 -66 -30 -92 22 -41 68 -18 142 69 17 20 18 20
50 2 18 -10 57 -24 86 -31 44 -10 53 -16 58 -39 3 -14 10 -41 16 -58 12 -42 3
-57 -31 -47 -30 8 -143 22 -248 30 -68 6 -73 8 -91 38 -36 60 -50 153 -61 386
-9 179 -14 210 -36 210 -12 0 -64 -127 -83 -205 -49 -199 -52 -241 -21 -334
11 -35 18 -65 16 -67 -3 -4 -409 11 -522 18 -11 1 -37 1 -58 0 -52 -3 -37 -22
17 -22 24 0 56 -4 72 -10 16 -5 82 -14 147 -20 113 -10 170 -19 352 -55 44 -8
127 -24 184 -35 57 -10 143 -28 190 -39 47 -11 113 -25 146 -31 33 -7 70 -14
82 -16 15 -3 31 -21 47 -53 35 -68 87 -111 134 -111 71 0 68 22 62 -447 l-5
-422 -90 -94 c-49 -51 -106 -111 -126 -133 -20 -21 -50 -50 -68 -62 -72 -54
-79 -142 -22 -288 54 -135 67 -159 115 -205 45 -45 72 -61 137 -83 70 -25 106
-20 190 27 129 72 471 418 514 521 12 29 15 111 16 478 1 244 4 477 8 518 7
88 6 88 121 43 41 -17 131 -52 200 -78 114 -44 162 -64 330 -142 74 -34 359
-176 389 -194 95 -55 352 -235 426 -298 392 -331 548 -631 500 -961 -17 -116
-23 -143 -54 -243 -32 -100 -158 -397 -186 -437 -26 -38 -69 -131 -90 -195
-55 -169 -90 -295 -140 -510 -82 -346 -83 -351 -95 -470 -10 -92 -19 -147 -36
-232 -6 -33 -96 -116 -323 -297 -95 -75 -100 -85 -102 -189 -1 -49 -7 -74 -20
-91 -38 -48 -80 -42 -172 25 -22 16 -42 27 -46 26 -3 -2 -19 -9 -36 -16 -16
-7 -38 -17 -48 -22 -87 -45 -132 -54 -272 -53 -128 1 -149 3 -242 32 -56 18
-128 45 -160 60 -69 33 -221 134 -317 211 -104 84 -117 91 -163 91 -51 0 -58
-14 -48 -103 12 -107 53 -203 140 -327 119 -169 286 -285 505 -351 93 -29 404
-14 472 22 10 5 25 9 34 9 9 0 28 6 42 14 37 19 99 46 107 46 4 0 45 -18 91
-40 47 -22 89 -40 94 -40 19 0 80 -43 80 -56 0 -19 -51 -119 -95 -189 -19 -30
-35 -56 -35 -60 0 -14 -152 -250 -214 -334 -148 -198 -443 -508 -646 -681 -47
-40 -87 -76 -90 -80 -8 -11 -208 -162 -316 -238 -56 -40 -135 -89 -175 -110
-41 -21 -106 -57 -146 -80 -39 -23 -74 -42 -77 -42 -4 0 -24 -11 -46 -25 -22
-14 -42 -25 -46 -25 -6 0 5 57 16 80 15 30 29 66 44 110 14 43 57 153 76 195
7 16 24 111 33 183 2 10 42 14 167 16 282 5 427 54 670 225 63 45 131 91 150
104 30 19 32 22 15 25 -12 2 -48 -4 -80 -13 -162 -43 -671 -63 -779 -30 -27 8
-62 15 -77 15 -15 0 -30 4 -34 9 -3 6 -8 81 -11 168 -12 363 -79 698 -204
1014 -33 81 -25 121 57 289 121 248 129 273 98 304 -32 32 -190 32 -404 0
l-93 -14 -22 28 c-94 121 -341 362 -370 362 -23 0 -27 -30 -15 -131 6 -52 13
-155 16 -229 5 -123 4 -136 -13 -151 -11 -9 -83 -42 -160 -73 -133 -53 -622
-293 -709 -348 -22 -13 -78 -44 -125 -69 -47 -24 -134 -74 -193 -111 -59 -37
-112 -68 -116 -68 -5 0 -14 -6 -20 -14 -6 -7 -49 -37 -96 -65 -110 -68 -378
-259 -388 -277 -4 -8 -12 -14 -18 -14 -5 0 -31 -15 -57 -33 -26 -18 -67 -44
-92 -58 -76 -42 -94 -53 -119 -71 -44 -33 -99 -19 -276 67 -108 53 -165 94
-165 118 0 37 -155 494 -202 597 -57 125 -71 157 -83 191 -7 20 -25 63 -40 95
-71 156 -88 190 -98 209 -15 27 -99 195 -109 219 -8 17 -5 18 39 11 43 -6 54
-15 137 -103 242 -255 606 -460 936 -526 47 -9 104 -21 128 -26 54 -13 313
-13 361 -1 20 5 68 17 106 26 87 21 244 95 293 139 20 18 73 60 117 93 44 33
102 82 128 109 52 51 117 164 95 164 -18 0 -128 -33 -218 -66 -41 -15 -109
-33 -150 -40 -87 -16 -444 -19 -505 -4 -22 5 -57 10 -77 10 -20 0 -47 4 -60 9
-13 5 -50 17 -83 27 -72 21 -247 94 -330 137 -127 67 -297 195 -382 288 -37
39 -53 49 -77 49 -18 0 -37 -5 -42 -10 -6 -6 -37 -11 -70 -13 -112 -4 -148 53
-105 168 39 105 39 106 -21 182 -87 110 -138 179 -138 186 0 3 -20 35 -44 70
-23 36 -56 96 -72 133 -58 136 -110 229 -130 232 -31 4 -42 -44 -54 -233 -15
-243 1 -404 56 -557 14 -40 28 -83 31 -96 6 -23 -11 -52 -31 -52 -10 0 -61 74
-102 149 -31 55 -40 70 -55 88 -8 10 -23 42 -33 72 -18 49 -18 80 -12 435 6
372 12 491 41 901 25 331 55 627 85 830 5 33 16 107 25 165 8 58 20 129 25
158 6 28 15 78 20 110 22 123 41 187 59 202 39 31 217 166 261 197 110 79 491
300 545 315 11 4 112 38 225 78 439 152 704 232 890 268 115 22 236 42 257 42
12 0 25 5 28 11 11 16 -234 -2 -413 -31 -155 -25 -126 -5 228 163 66 31 445
273 515 328 33 27 110 87 170 135 123 96 304 274 330 323 17 33 62 60 103 61
13 0 54 -20 90 -44z m1468 -103 c-10 -11 -36 -12 -36 -2 0 5 10 9 22 9 12 0
18 -3 14 -7z m652 -172 c29 -16 26 -31 -28 -143 -22 -44 -40 -86 -40 -92 0
-17 -83 -138 -100 -146 -46 -22 -103 -35 -165 -36 -38 -1 -92 -4 -120 -7 -56
-7 -232 -19 -255 -18 -51 1 -309 22 -380 31 -47 5 -123 14 -170 19 -161 18
-198 34 -215 96 -3 11 -20 64 -37 118 -22 69 -28 101 -20 109 13 13 120 25
342 38 175 10 344 24 475 39 114 14 686 7 713 -8z m-1068 -582 c119 -17 379
-22 495 -9 216 24 225 24 225 6 0 -9 -6 -27 -14 -39 -29 -45 -67 -113 -81
-144 -12 -25 -23 -33 -58 -41 -36 -7 -266 -14 -576 -16 l-65 -1 -19 50 c-20
54 -47 168 -47 199 0 16 5 18 38 12 20 -4 66 -12 102 -17z m380 -464 c9 -11
10 -54 4 -182 -5 -93 -7 -184 -6 -203 2 -19 1 -184 -3 -366 l-7 -332 -60 -90
c-63 -98 -182 -232 -204 -232 -7 0 -17 -6 -21 -13 -13 -21 -147 -107 -167
-107 -9 0 -27 5 -39 11 -25 13 -87 70 -87 80 0 10 65 79 76 79 5 0 19 11 32
24 l22 24 -49 39 c-87 67 -86 70 26 184 53 54 104 99 113 99 10 0 36 -13 58
-30 23 -16 48 -30 55 -30 21 0 97 97 97 124 0 8 7 17 15 20 13 5 15 20 13 77
l-3 71 -55 19 c-30 10 -62 19 -71 19 -9 0 -19 6 -21 13 -7 20 4 394 12 407 6
9 15 8 38 -4 35 -18 72 -21 72 -6 0 6 -7 13 -15 16 -12 5 -13 10 -5 19 8 9 8
44 2 116 -9 92 -8 119 4 157 5 19 158 17 174 -3z m-240 -985 c0 -5 -7 -10 -16
-10 -8 0 -12 5 -9 10 3 6 10 10 16 10 5 0 9 -4 9 -10z m-350 -295 c0 -8 -4
-15 -10 -15 -5 0 -10 7 -10 15 0 8 5 15 10 15 6 0 10 -7 10 -15z m3490 -194
c0 -6 -4 -13 -10 -16 -5 -3 -10 1 -10 9 0 9 5 16 10 16 6 0 10 -4 10 -9z
m-327 -1304 c-3 -21 -10 -37 -14 -37 -10 0 -12 61 -3 85 12 29 24 -7 17 -48z
m-7411 -759 c70 -138 72 -144 50 -198 -28 -66 -42 -112 -37 -120 3 -4 35 -13
72 -20 69 -13 103 -32 103 -57 0 -7 4 -21 9 -31 6 -9 20 -39 32 -67 12 -27 32
-70 44 -95 20 -41 72 -163 112 -265 9 -22 27 -63 40 -92 12 -28 23 -58 23 -65
0 -8 4 -18 10 -24 10 -10 54 -125 97 -254 14 -41 31 -89 39 -107 8 -17 14 -36
14 -41 0 -6 14 -50 30 -99 34 -99 34 -103 19 -103 -31 0 -495 375 -621 501
-114 115 -103 45 -106 668 -3 507 -1 571 13 571 2 0 28 -46 57 -102z m4148
-662 c0 -14 -5 -28 -11 -32 -6 -3 -9 -17 -6 -30 2 -13 1 -24 -2 -24 -7 0 -41
-71 -69 -145 -11 -27 -26 -51 -34 -53 -9 -2 -30 22 -53 60 -22 35 -61 93 -87
129 -26 37 -48 74 -48 82 0 15 7 18 90 30 14 3 69 5 123 6 97 1 97 1 97 -23z
m2020 -281 c0 -14 -4 -33 -9 -43 -5 -9 -14 -37 -21 -62 -7 -25 -18 -61 -25
-80 -8 -19 -19 -53 -26 -75 -49 -160 -65 -155 -61 19 l4 141 61 63 c34 34 65
62 69 62 4 0 8 -11 8 -25z m42 -1626 c41 -21 116 -71 176 -118 50 -39 95 -125
94 -179 0 -56 -13 -70 -45 -49 -13 8 -39 17 -58 19 -48 4 -45 -19 8 -57 23
-16 42 -35 42 -41 1 -6 -9 -24 -20 -39 -25 -30 -41 -30 -142 0 -43 13 -61 15
-69 7 -16 -16 55 -82 88 -82 33 0 31 -29 -3 -62 -28 -26 -135 -88 -152 -88 -5
0 -30 31 -55 69 -53 82 -72 90 -179 83 -75 -4 -77 -4 -77 18 0 12 13 39 28 59
42 53 138 197 232 349 45 72 84 132 86 132 3 0 23 -9 46 -21z m-7587 -503 c28
-19 68 -50 90 -70 22 -20 67 -55 100 -78 33 -23 86 -60 118 -82 33 -23 66 -45
75 -51 9 -5 57 -37 107 -71 49 -33 128 -80 175 -104 47 -24 99 -54 116 -66 45
-35 98 -54 148 -54 25 0 87 -13 138 -30 58 -19 113 -30 149 -30 55 0 89 -16
89 -40 0 -5 19 -41 43 -80 45 -77 62 -90 187 -144 36 -16 99 -43 140 -61 41
-18 122 -51 180 -75 58 -23 119 -48 135 -55 57 -25 100 -42 175 -69 41 -15 93
-34 115 -43 22 -8 49 -19 60 -23 11 -4 50 -21 86 -38 36 -18 69 -32 72 -32 11
0 110 -62 134 -83 32 -28 18 -40 -25 -21 -20 9 -64 17 -97 19 -33 2 -80 10
-105 18 -49 17 -141 41 -235 61 -33 7 -87 23 -120 35 -33 12 -87 30 -120 41
-168 54 -232 81 -390 164 -50 26 -224 106 -231 106 -8 0 -259 146 -309 180
-22 15 -65 40 -95 55 -30 15 -69 38 -87 51 -17 13 -33 24 -36 24 -8 0 -163 96
-226 140 -35 25 -90 63 -122 85 -179 123 -529 439 -529 478 0 5 10 2 23 -6 12
-9 45 -32 72 -51z m6042 -1042 c-3 -3 -12 -4 -19 -1 -8 3 -5 6 6 6 11 1 17 -2
13 -5z m-37 -13 c0 -15 -108 -73 -190 -102 -41 -14 -120 -43 -175 -64 -147
-57 -445 -152 -520 -166 -22 -5 -69 -15 -105 -23 -36 -8 -78 -18 -95 -21 -16
-4 -59 -12 -95 -20 -246 -51 -738 -96 -875 -80 -67 8 -126 12 -197 14 -53 1
-63 17 -25 40 23 15 104 25 337 40 80 6 169 15 199 21 29 5 79 10 110 10 31 0
97 7 146 15 50 8 116 15 147 15 31 0 69 5 84 10 15 6 63 15 108 20 117 14 291
50 451 95 54 15 145 39 210 56 22 6 54 15 70 21 17 5 48 14 70 18 43 9 270 86
295 100 20 12 50 12 50 1z"/>
<path d="M3715 6927 c-38 -18 -174 -111 -258 -176 -145 -114 -254 -287 -313
-496 -34 -118 -27 -468 13 -685 32 -174 134 -394 261 -563 60 -80 106 -122
184 -174 232 -151 478 -183 753 -96 191 59 344 151 479 286 76 76 186 214 186
233 0 2 11 21 25 42 34 52 93 200 104 264 5 29 16 81 25 115 39 155 46 211 46
367 0 88 -4 173 -9 190 -68 234 -126 356 -211 448 -85 93 -120 113 -200 114
-36 1 -119 10 -185 22 -66 11 -158 25 -205 31 -96 13 -176 28 -235 43 -133 35
-413 56 -460 35z m245 -122 c211 -23 209 -23 228 -63 21 -43 45 -55 42 -21 -4
41 -1 46 40 59 70 23 118 -19 103 -91 -5 -28 -4 -30 17 -27 23 3 33 15 44 52
6 17 14 18 89 12 170 -13 322 -41 365 -67 43 -26 141 -214 169 -322 22 -89 7
-155 -74 -312 -20 -38 -42 -77 -49 -85 -153 -182 -307 -291 -474 -335 -53 -14
-92 -16 -215 -12 -275 11 -459 75 -615 213 -165 147 -244 309 -257 524 -8 148
-6 153 164 327 82 83 155 153 163 156 27 10 133 7 260 -8z m115 -1270 c164
-20 317 -120 380 -250 26 -53 29 -70 29 -155 0 -83 -4 -103 -29 -158 -19 -42
-45 -78 -80 -110 -50 -46 -60 -52 -137 -85 -48 -21 -161 -41 -196 -34 -15 3
-54 10 -87 16 -33 6 -105 33 -162 61 -80 40 -114 64 -156 109 -82 89 -102 137
-102 246 0 80 3 97 30 148 56 111 175 191 320 215 59 9 90 9 190 -3z"/>
<path d="M4150 6176 c-95 -30 -200 -123 -219 -192 -37 -132 20 -258 143 -321
40 -20 64 -25 135 -26 74 -1 94 3 146 27 71 32 130 86 156 141 22 46 25 153 7
206 -43 126 -230 210 -368 165z"/>
<path d="M7435 6457 c-254 -99 -416 -299 -495 -612 -27 -107 -38 -189 -46
-344 -15 -271 78 -627 217 -832 106 -157 159 -210 291 -288 160 -94 266 -115
418 -83 166 36 356 142 444 247 28 34 81 95 118 136 71 80 164 229 215 345 29
68 48 136 74 269 16 85 24 405 11 458 -6 23 -16 69 -22 102 -17 85 -65 209
-107 278 -31 52 -34 62 -24 80 10 16 10 22 -1 32 -21 20 -157 72 -233 89 -38
9 -83 20 -100 25 -16 5 -75 16 -130 25 -198 33 -353 63 -398 77 -15 4 -60 11
-100 14 -60 4 -82 1 -132 -18z m212 -92 c54 -14 107 -25 118 -25 48 0 93 -21
99 -44 9 -35 36 -42 36 -9 0 31 26 63 51 63 26 0 49 -28 49 -61 0 -31 23 -41
34 -14 9 25 104 16 251 -25 113 -31 143 -65 215 -245 52 -126 70 -195 70 -263
0 -53 -6 -74 -39 -140 -22 -42 -60 -103 -85 -134 -49 -61 -159 -157 -210 -183
-17 -8 -38 -19 -46 -24 -50 -27 -68 -34 -119 -48 -95 -26 -371 -16 -459 16
-177 65 -327 207 -403 383 -39 91 -48 121 -63 227 -12 76 -11 89 5 133 18 51
93 177 126 213 10 11 39 45 65 75 46 55 156 130 190 130 10 0 61 -11 115 -25z
m178 -1269 c28 -7 68 -22 90 -33 49 -25 156 -135 178 -183 89 -188 -27 -424
-241 -490 -104 -32 -210 -23 -339 29 -213 85 -295 257 -214 447 77 180 210
261 406 248 39 -2 93 -10 120 -18z"/>
<path d="M7685 5731 c-67 -12 -114 -45 -157 -110 -50 -79 -32 -199 40 -269 68
-67 209 -101 298 -72 113 36 163 75 189 149 42 119 -6 235 -120 287 -40 19
-65 24 -130 23 -44 -1 -98 -5 -120 -8z"/>
<path d="M4555 3973 c-92 -34 -147 -44 -273 -50 -141 -6 -153 -14 -61 -38 106
-29 237 -16 350 33 109 47 95 96 -16 55z"/>
<path d="M6870 3862 c0 -15 71 -102 117 -143 45 -41 174 -107 213 -110 84 -5
80 19 -12 72 -40 23 -113 67 -163 97 -49 30 -105 64 -122 74 -18 11 -33 15
-33 10z"/>
<path d="M6900 8940 c0 -5 5 -10 11 -10 5 0 7 5 4 10 -3 6 -8 10 -11 10 -2 0
-4 -4 -4 -10z"/>
<path d="M7826 10231 c5 -4 32 -14 59 -20 28 -7 69 -23 92 -36 l42 -23 16 24
c9 14 13 33 10 44 -6 18 -16 20 -118 20 -63 0 -107 -4 -101 -9z"/>
<path d="M0 7254 c0 -317 3 -405 12 -396 7 7 15 59 19 119 4 60 11 156 15 215
9 135 -13 443 -32 459 -12 10 -14 -54 -14 -397z"/>
<path d="M10231 7304 c0 -11 3 -14 6 -6 3 7 2 16 -1 19 -3 4 -6 -2 -5 -13z"/>
<path d="M10216 7098 c-3 -14 1 -29 9 -38 13 -13 15 -10 15 23 0 41 -14 50
-24 15z"/>
<path d="M10146 7033 c-4 -12 -4 -32 -1 -46 4 -14 2 -28 -4 -31 -6 -4 -11 -20
-11 -35 0 -16 -7 -34 -15 -41 -18 -15 -16 -51 3 -58 8 -2 12 7 12 27 0 17 4
39 9 49 5 9 13 30 17 46 12 40 28 39 32 -1 2 -22 9 -33 19 -33 13 0 14 8 8 48
-8 53 -12 62 -27 62 -6 0 -16 8 -23 17 -11 15 -13 15 -19 -4z"/>
<path d="M10161 6810 c-18 -25 -21 -36 -13 -58 13 -39 24 -33 41 21 19 61 4
80 -28 37z"/>
<path d="M10067 6786 c-3 -8 1 -20 9 -26 8 -7 14 -19 14 -26 0 -8 5 -14 10
-14 6 0 10 9 10 20 0 11 -4 20 -10 20 -5 0 -10 9 -10 20 0 23 -15 27 -23 6z"/>
<path d="M10114 6696 c-8 -20 5 -47 24 -54 17 -5 15 30 -2 54 -14 19 -15 19
-22 0z"/>
<path d="M10110 6581 c0 -11 -7 -24 -17 -29 -10 -6 -14 -16 -10 -26 9 -22 27
-11 27 15 0 10 5 19 10 19 6 0 10 6 10 14 0 8 -4 18 -10 21 -5 3 -10 -3 -10
-14z"/>
<path d="M10040 6470 c-13 -8 -13 -11 -1 -19 11 -7 10 -13 -6 -30 -16 -18 -20
-32 -16 -69 3 -26 1 -42 -4 -36 -4 6 -16 13 -25 17 -14 5 -18 1 -18 -20 0 -21
2 -24 15 -13 13 11 15 8 15 -15 0 -15 -7 -39 -16 -55 -11 -18 -14 -37 -10 -55
9 -34 19 -24 35 35 7 25 17 59 23 75 6 17 11 43 11 60 0 16 6 35 13 43 8 7 15
24 16 38 0 13 1 29 2 36 1 16 -16 20 -34 8z"/>
<path d="M2410 3946 c0 -8 5 -18 10 -21 6 -3 10 1 10 9 0 8 -4 18 -10 21 -5 3
-10 -1 -10 -9z"/>
<path d="M2422 3810 c0 -19 2 -27 5 -17 2 9 2 25 0 35 -3 9 -5 1 -5 -18z"/>
<path d="M9567 3579 c-15 -22 -27 -49 -27 -59 0 -10 -7 -20 -15 -24 -8 -3 -15
-15 -15 -26 0 -12 -7 -20 -16 -20 -12 0 -15 -6 -10 -25 5 -20 3 -25 -13 -25
-28 0 -42 -23 -35 -57 4 -18 1 -33 -5 -37 -7 -5 -11 3 -11 20 0 21 -3 25 -11
17 -7 -7 -8 -19 -4 -30 4 -10 7 -29 6 -42 -2 -14 1 -21 8 -17 6 4 11 14 11 23
0 9 6 24 14 32 11 13 49 79 87 151 26 50 70 152 67 156 -3 2 -17 -15 -31 -37z"/>
<path d="M0 3410 c0 -91 4 -160 9 -160 9 0 43 49 66 95 6 11 17 21 26 23 21 4
56 -48 71 -104 l13 -47 -78 -73 c-43 -41 -76 -78 -73 -83 8 -12 57 2 100 28
68 43 86 16 68 -102 -6 -40 -14 -94 -17 -122 -8 -57 -32 -113 -57 -129 -14 -8
-24 -3 -55 28 -67 67 -73 67 -73 -9 0 -51 3 -65 15 -65 8 0 15 -4 15 -9 0 -4
17 -20 38 -35 53 -36 95 -35 132 6 62 67 79 133 101 385 27 304 -34 437 -235
512 -31 11 -59 21 -61 21 -3 0 -5 -72 -5 -160z"/>
<path d="M9330 3248 c-41 -52 -41 -53 -18 -58 21 -5 24 -11 20 -41 -2 -13 -44
-1 -54 15 -5 7 -14 2 -25 -14 -10 -14 -29 -35 -42 -48 -24 -22 -24 -23 -5 -36
22 -17 36 -12 27 9 -4 11 -1 13 11 9 11 -4 16 0 16 14 0 11 6 25 14 31 11 9
15 6 19 -14 3 -19 -3 -33 -23 -53 -26 -26 -60 -82 -60 -98 0 -13 51 39 81 83
16 23 29 48 29 56 0 8 7 20 15 27 29 24 68 101 56 113 -8 8 -14 2 -22 -21 -13
-38 -29 -42 -29 -7 0 16 6 25 15 25 8 0 15 5 15 12 0 6 7 20 17 30 14 16 14
18 0 18 -8 0 -34 -24 -57 -52z"/>
<path d="M9162 2948 c-22 -28 -53 -91 -47 -97 4 -3 18 8 31 24 13 17 31 38 40
47 9 9 13 21 9 27 -8 14 -20 14 -33 -1z"/>
<path d="M5709 2882 c-3 -20 -2 -29 4 -23 5 5 7 19 5 32 -3 20 -5 19 -9 -9z"/>
<path d="M6985 1841 c-3 -5 -1 -12 5 -16 12 -7 30 2 30 16 0 12 -27 12 -35 0z"/>
<path d="M6880 1714 c0 -8 5 -12 10 -9 6 4 8 11 5 16 -9 14 -15 11 -15 -7z"/>
<path d="M6710 1712 c0 -4 5 -13 12 -20 9 -9 9 -15 0 -24 -9 -9 -13 -7 -18 5
-8 21 -53 22 -60 2 -3 -8 -14 -17 -25 -20 -22 -7 -26 -25 -4 -25 8 0 30 -9 50
-20 27 -15 41 -17 60 -10 30 11 34 25 5 17 -30 -8 -33 9 -6 27 21 13 25 13 30
1 6 -16 36 -21 36 -6 0 5 -7 14 -15 21 -8 7 -15 18 -15 26 0 7 -9 18 -19 24
-24 12 -31 13 -31 2z m-22 -64 c-7 -20 -48 -23 -48 -4 0 11 9 16 26 16 16 0
24 -5 22 -12z"/>
<path d="M6560 1620 c0 -5 4 -10 9 -10 6 0 13 5 16 10 3 6 -1 10 -9 10 -9 0
-16 -4 -16 -10z"/>
<path d="M6558 1583 c-16 -2 -28 -9 -28 -14 0 -6 8 -8 19 -4 21 6 51 -3 51
-16 0 -5 -9 -9 -20 -9 -11 0 -20 -4 -20 -10 0 -13 0 -13 55 11 l48 21 -32 14
c-19 8 -36 13 -40 13 -3 -1 -18 -4 -33 -6z"/>
<path d="M6500 1520 c0 -11 6 -20 14 -20 9 0 12 7 9 20 -3 11 -9 20 -14 20 -5
0 -9 -9 -9 -20z"/>
</g>
</svg>
